<svg xmlns="http://www.w3.org/2000/svg" width="900" height="520" viewBox="0 0 900 520" role="img" aria-labelledby="title desc">
  <title id="title">Component API illustration</title>
  <desc id="desc">Reusable component blocks arranged in a grid.</desc>
  <rect width="900" height="520" fill="#fafaf9"/>
  <rect x="96" y="88" width="708" height="344" rx="28" fill="#1f2937"/>
  <rect x="150" y="142" width="170" height="116" rx="18" fill="#f97316"/>
  <rect x="365" y="142" width="170" height="116" rx="18" fill="#14b8a6"/>
  <rect x="580" y="142" width="170" height="116" rx="18" fill="#e2e8f0"/>
  <rect x="150" y="298" width="170" height="78" rx="18" fill="#e2e8f0"/>
  <rect x="365" y="298" width="385" height="78" rx="18" fill="#99f6e4"/>
  <path d="M320 200h45M535 200h45M320 337h45" stroke="#f8fafc" stroke-width="10" stroke-linecap="round"/>
  <path d="M236 188h72M236 220h44M452 188h72M452 220h44M626 188h72M626 220h44" stroke="#0f172a" stroke-width="10" stroke-linecap="round" opacity=".48"/>
</svg>
